PathFileType	4	(X/Y/Z)	OpenSim_Sub10_CSBaseline_Accel.trc
DataRate	CameraRate	NumFrames	NumMarkers	Units	OrigDataRate	OrigDataStartFrame	OrigNumFrames
100	100	38	8	m	100	2278	9111
Frame#	Time	torso_imu_offset_imu	pelvis_imu_offset_imu	tibia_r_imu_offset_imu	femur_r_imu_offset_imu	tibia_l_imu_offset_imu	femur_l_imu_offset_imu	toes_r_imu_offset_imu	toes_l_imu_offset_imu
				X1	Y1	Z1	X2	Y2	Z2	X3	Y3	Z3	X4	Y4	Z4	X5	Y5	Z5	X6	Y6	Z6	X7	Y7	Z7	X8		Y8	Z8	

2278	22.77000000	9.49994942	-0.07481197	5.58404487	8.87348363	-0.06040473	3.22465691	1.64625638	4.95210798	4.22971065	9.33898074	-1.20453153	2.41498239	9.84862687	-3.12543154	-0.44200120	9.29830589	1.75264862	-1.46955332	1.19772426	2.55088671	7.37074785	5.70439244	0.30932395	10.86886544
2279	22.78000000	9.42318356	-0.04658008	5.76320339	8.79605908	-0.06815238	3.13151837	1.99111042	3.96639945	4.09006226	9.47508065	-1.06440406	2.45810625	9.91392122	-2.95160470	-0.42630719	8.93028208	1.75551598	-1.26615163	1.32585742	2.70991314	7.15300142	5.37693658	0.24789912	10.98148331
2280	22.79000000	8.96437175	-0.01638876	5.91163118	8.73692705	-0.12162608	3.05836550	2.89735993	2.77876148	3.47971625	9.47295176	-1.07681432	2.53981297	9.75230182	-2.75279854	-0.30288568	9.01049688	1.66770959	-1.26750955	2.21974344	2.84679828	7.38977716	5.63824195	0.36731466	10.82043543
2281	22.80000000	8.42538440	0.05422470	5.93047292	8.74695050	-0.16222647	2.99690598	3.77897813	1.86121552	3.25320779	9.36879191	-1.10308184	2.59079560	9.74941307	-2.35358570	-0.24373631	8.96992912	1.50857705	-1.29283674	3.41134705	2.96722617	7.78257799	5.62012990	0.34532619	10.79798283
2282	22.81000000	8.36424992	0.07275942	5.83520954	8.77884375	-0.18624905	3.01027467	4.37858748	2.06527491	3.19010305	9.11924518	-1.23171124	2.55927294	9.77694399	-2.02433518	-0.20611235	8.78949217	1.31797370	-1.51979993	4.09170222	3.30679955	8.23540717	5.89161143	0.42406026	10.63625102
2283	22.82000000	8.32544921	0.12924704	5.91115803	8.78950745	-0.25396135	3.03862359	4.65031762	2.72274871	2.63536003	8.78374025	-1.44878425	2.54207867	9.73018004	-1.55785363	-0.14019285	8.83449638	1.52316589	-1.67943927	4.55654323	3.57898514	8.66556016	5.32874576	0.37185463	10.92174142
2284	22.83000000	8.20087671	0.18040019	5.86242768	8.71474161	-0.25468078	3.10737729	5.08828505	3.51126338	1.55128897	8.40212929	-1.61053545	2.46633926	9.70625011	-1.24373475	-0.37825629	9.01018815	1.62409545	-1.98919438	5.07811756	3.77003733	8.98051673	5.32639739	0.45122552	10.93738377
2285	22.84000000	8.09942672	0.24983825	5.82399503	8.55066680	-0.28957781	3.18879297	5.46082889	4.49158535	0.99835495	8.09310591	-1.80313019	2.36430861	9.84638999	-0.88462798	-0.12194897	8.88566210	1.63945750	-1.89787226	6.04886601	3.90628077	9.22059558	5.78386382	0.45838706	10.66276572
2286	22.85000000	7.97904196	0.27570130	5.85489646	8.46171428	-0.28268239	3.13812406	6.11996261	5.67043326	0.86896976	7.91647071	-1.94174094	2.30807126	9.81557366	-0.73616586	0.01976463	8.71734401	1.92962431	-1.96452868	7.29439558	3.72040962	9.33556529	5.96810035	0.37261901	10.45816140
2287	22.86000000	7.92756166	0.31176289	5.85295026	8.31957604	-0.26420652	3.07257702	7.01243058	7.11703835	1.38247964	7.76223571	-2.06423096	2.15846567	9.70571339	-0.45120973	0.05851144	8.60107773	2.13504536	-1.78592152	8.59043025	3.54215754	9.59772376	5.62652868	0.34431401	10.67810587
2288	22.87000000	7.76246089	0.28122029	5.89119911	8.22501851	-0.33082593	2.97199481	7.58473923	8.63446376	3.02217567	7.47345871	-2.20154764	1.94004136	9.41509386	-0.20583154	0.00065888	8.71144060	2.17405336	-1.76698352	9.57570591	2.97028807	9.98658197	5.44432895	0.35906978	10.84337987
2289	22.88000000	7.52615487	0.34049717	5.90772348	8.13836236	-0.37427252	2.93785928	7.89827243	9.46785787	3.67886712	7.22601326	-2.18949167	1.67615552	9.51193188	0.15615540	0.17809690	8.59381386	1.79167413	-1.62823379	10.28856329	2.22450203	10.34331958	5.69076346	0.38002953	10.66043342
2290	22.89000000	7.54765450	0.45799587	5.71662655	8.02404532	-0.52528496	3.00894579	7.97431861	10.11345532	2.95958725	7.10726958	-2.09087003	1.54544287	9.67250578	0.33155594	0.10116238	8.33100335	1.69579796	-1.63984220	11.37989140	1.52718833	10.58208963	5.54807686	0.31581699	10.69329872
2291	22.90000000	7.67545939	0.55434643	5.72455242	7.89564659	-0.71637836	3.06901967	7.90555272	10.29236778	2.22796527	7.04720456	-2.02082311	1.50998193	9.69738422	0.52078959	0.36801373	8.30197447	1.60423979	-1.73904084	13.09031928	1.19384198	10.57863783	5.80283131	0.43759202	10.57433170
2292	22.91000000	7.90911954	0.56118965	5.61201499	7.98484119	-0.88834704	3.14000502	7.63500778	9.08848755	1.50501135	7.09916356	-2.21332815	1.48590627	9.70276024	0.60674549	0.18016270	8.47897917	1.46970712	-1.85577181	14.78341414	1.25038331	10.14503783	5.23448025	0.41610944	10.93636839
2293	22.92000000	8.17879105	0.61695885	5.61445600	8.24208236	-1.00597445	3.15986689	7.42837750	6.54603440	1.16667298	7.29559920	-2.66820015	1.39040945	9.93308410	0.72876023	0.54675498	8.67137786	1.18892674	-1.91343442	15.54815476	1.92902434	9.32473389	5.65956216	0.32400002	10.70489495
2294	22.93000000	8.44463320	0.63246053	5.75357464	8.58816288	-1.13373078	3.18910597	7.31165511	3.58988141	1.80824944	7.62698511	-3.03115310	1.50245787	10.09304756	0.82187654	0.21670054	9.06962938	1.10238444	-2.03154631	15.82702019	2.99575033	8.49935069	5.62715418	0.21833258	10.62452821
2295	22.94000000	8.68225832	0.61918519	5.87886406	8.87602065	-1.14219160	3.16854647	7.70720684	1.00206311	2.38585715	7.79403874	-3.50304976	1.78635637	9.99601949	0.87226702	0.47724020	9.25936080	1.09924095	-2.22735546	16.60673181	3.53111954	7.68163439	5.75316524	0.38952840	10.71520445
2296	22.95000000	8.85310666	0.57012737	6.03397602	9.12789013	-1.14431087	3.11948838	9.04821471	-0.24023609	1.64027102	7.87075704	-3.88132862	1.97092370	10.02791273	1.20551393	0.23186236	9.55892326	1.39220295	-2.41815809	17.23529102	3.09295208	6.34260053	5.34784127	0.23493320	10.94883995
2297	22.96000000	8.99525950	0.52014898	6.05261390	9.22036194	-0.98105099	3.10686923	10.99623744	-0.17153797	0.66983941	7.82426018	-4.06829410	1.92369575	9.89473904	1.61786866	0.14027791	9.43968720	1.53062320	-2.51404941	17.18239084	2.96069455	4.64813280	5.52577397	0.35972504	10.89564933
2298	22.97000000	9.02133665	0.53918068	6.04863120	9.16813013	-0.78768320	3.12877498	13.06502076	0.50548885	0.07399532	7.76401713	-4.16074971	1.66496692	9.84809576	1.84768966	-0.08886157	9.70144836	1.84489623	-2.60903846	18.15291734	1.95873003	3.01196781	5.67938138	0.47869389	10.86363681
2299	22.98000000	9.15349201	0.64003838	6.06319915	9.14139951	-0.56348598	3.12224297	14.53162783	0.86671136	-0.20297647	7.71605753	-3.97847869	1.48730772	10.08149034	1.57143130	-0.15623407	9.31069104	1.81596799	-2.50059627	19.18094858	1.40839272	1.24699757	5.85459601	0.38750015	10.67051205
2300	22.99000000	9.31689955	0.66748701	6.07791545	9.15154520	-0.30780349	3.02848405	14.62599059	0.78342281	0.66422545	7.84252294	-3.64319687	1.46215901	10.28550904	0.79373203	-0.15154323	9.36763187	1.98570468	-2.41801617	19.64551962	0.75336353	-0.55397550	5.51931658	0.52577904	10.92953232
2301	23	9.39570542	0.68883038	6.05023880	9.33903943	-0.07839038	2.91546730	13.28415234	0.48625545	1.04131891	8.29067925	-3.90379643	1.70232949	10.67505502	0.11376431	-0.33101225	9.23771607	2.10109362	-2.23505067	19.80366142	0.49584524	-1.91012888	5.09988454	0.80101653	11.20860442
2302	23.01000000	9.53806613	0.62627693	6.17953180	9.57669005	0.03506902	2.77417442	11.40825652	0.76521406	0.91131557	8.83475060	-4.46902217	1.92476669	10.97244683	-0.38205692	-0.23268793	9.17660600	2.08985155	-2.18596176	19.95548074	0.77142051	-2.61020859	5.15093204	0.88332111	11.20902860
2303	23.02000000	9.54201985	0.57420458	6.33416812	9.83601786	0.09937220	2.53838265	9.74070003	1.57442458	0.96139594	9.24791312	-4.92926816	2.05442014	10.78522187	-0.80347044	-0.19325852	9.29980285	2.44854640	-2.37491339	19.52322081	1.64327208	-2.98425586	5.25022358	0.62656703	11.26737465
2304	23.03000000	9.67484701	0.48665564	6.43114015	10.01302211	-0.01852118	2.23887601	8.79582969	2.54999707	0.85564531	9.34188210	-5.75847631	2.20466136	10.61615328	-0.94044041	-0.14111971	9.59842861	2.55433779	-2.39425966	18.62311139	1.99802208	-3.09399736	5.48072952	0.33316390	11.26694118
2305	23.04000000	9.71755286	0.49173887	6.45467219	10.06872186	-0.25701633	2.01749775	8.47251535	3.46890518	0.50251356	9.34024616	-6.27823441	1.95896061	10.58200371	-1.22840881	-0.23013366	9.70618232	2.36015105	-2.44790528	17.24392457	1.12299448	-3.29933860	5.12185453	0.07287672	11.41115888
2306	23.05000000	9.74489966	0.47544037	6.43887037	10.08775047	-0.44721196	2.01359339	8.45147777	4.27387991	0.00045055	9.33044538	-6.45765187	1.46776862	10.81229299	-1.72553623	-0.06840003	9.70022277	2.36352360	-2.53514815	15.39565908	-3.04383118	-7.61505754	5.48743048	-0.02561710	11.24059550
2307	23.06000000	9.76810380	0.54596152	6.44636845	10.20085385	-0.49770170	2.22923576	8.60845586	4.82702006	-0.45994329	9.12515641	-6.36073208	1.07506009	11.13877930	-2.29516227	-0.04646993	9.60547512	2.26690726	-2.70683512	17.60362572	2.50491631	-8.45686779	5.52183332	-0.18735043	11.32168473
2308	23.07000000	9.86763855	0.59044570	6.52647859	10.35666870	-0.45671816	2.41887581	9.17351816	4.58287013	-0.26562979	8.50535786	-6.06160484	1.09578270	11.60165156	-2.53044952	0.50682504	9.51181338	2.02383146	-2.72087019	10.43775322	11.12304964	12.54570377	5.80959539	-0.32065302	11.33343927
2309	23.08000000	10.06091043	0.58606452	6.67050360	10.70776699	-0.41907046	2.78156505	10.12012106	3.57216395	1.67680891	7.96230014	-5.81219351	1.22457362	11.34483211	-2.15604323	0.84326608	9.81293579	1.84298852	-2.72023939	4.16765738	8.23171516	15.85698088	5.27009352	-0.93608477	11.59478571
2310	23.09000000	10.32544405	0.53376337	6.90657586	11.08756260	-0.28880515	3.20636004	10.92657470	3.45422156	4.61642818	8.30323371	-5.63560523	1.58197675	11.35399701	-1.23443282	0.91402422	10.25588732	1.59061595	-2.51239793	-3.57741004	16.79579042	12.10531511	5.20651516	-0.76491264	11.74789451
2311	23.10000000	10.68488206	0.51862218	7.21842603	11.46334846	0.03478920	3.29113646	11.80931091	2.06569763	3.95866188	9.86285755	-5.95249190	1.21910991	11.53314021	-0.27921131	1.61347586	10.54529067	1.10765021	-2.43587391	3.80088735	15.59168312	12.70139633	5.55839027	-0.65467500	11.57982913
2312	23.11000000	11.07919768	0.35271028	7.54589463	11.78891820	0.23329154	3.20804530	12.79287784	-2.31927766	6.18790120	11.61158068	-6.29450351	0.33759979	11.37679631	0.68871597	2.30135054	11.38103237	0.77085306	-2.30972214	11.09116746	1.17308940	13.01619949	5.47078573	-0.46750328	11.61503907
2313	23.12000000	11.22580897	0.10068683	7.58932864	12.05553815	0.41361280	3.47648946	13.98679351	-6.70327185	9.17997360	12.49735680	-5.74588755	0.50175437	11.32460622	2.00244734	1.86147793	11.80087063	0.56134135	-2.29459351	9.45652627	-9.27362774	8.78863900	5.28494081	0.49464107	12.01073621
2314	23.13000000	11.13220269	0.08302977	7.58250564	12.25452730	0.53780090	3.74582703	13.90326828	-7.55599944	6.79130481	13.10577964	-4.25908379	1.47963907	11.38232984	2.65327452	2.07649574	11.38030992	0.33612707	-2.49081309	9.92281931	-8.91126467	8.82510708	4.88097780	0.64201646	11.89540735
2315	23.14000000	11.02879948	0.08793314	7.57780417	12.33578225	0.66732822	3.72746579	12.49087502	-3.80552588	3.28379020	13.03340122	-2.90645642	2.11591302	11.41633024	2.13042131	1.90966508	12.09769548	0.45191905	-2.71065326	17.58403957	-3.77509607	12.91655950	5.25847423	1.17442760	11.57923294
